<svg xmlns="http://www.w3.org/2000/svg" width="24" height="27.497" viewBox="0 0 24 27.497">
    <defs>
        <style>
            .bordband-1{fill:#999}
        </style>
    </defs>
    <g id="Broadband-1" transform="translate(-631.064 -176.469)">
        <path id="Path_27482" d="M653.064 196.966h-20a2 2 0 0 0-2 2v3a2 2 0 0 0 2 2h20a2 2 0 0 0 2-2v-3a2 2 0 0 0-2-2zm-17.5 5.167a1.5 1.5 0 1 1 1.5-1.5 1.5 1.5 0 0 1-1.5 1.5zm3.5-1a.5.5 0 1 1 .5-.5.5.5 0 0 1-.5.5z" class="bordband-1" data-name="Path 27482"/>
        <path id="Path_27483" d="M642.564 185.966v8a.5.5 0 0 0 1 0v-8a.5.5 0 1 0-1 0z" class="bordband-1" data-name="Path 27483"/>
        <path id="Path_27484" d="M645.826 191.848a6.524 6.524 0 0 0 2.518-2.091 6.5 6.5 0 1 0-9.072 1.483.5.5 0 0 0 .584-.812 5.5 5.5 0 1 1 7.676-1.255 5.553 5.553 0 0 1-2.178 1.791l.21.454z" class="bordband-1" data-name="Path 27484"/>
        <path id="Path_27485" d="M644.314 188.133a.5.5 0 1 0 .5.866 3.5 3.5 0 1 0-3.5 0 .5.5 0 0 0 .5-.866 2.5 2.5 0 1 1 2.5 0z" class="bordband-1" data-name="Path 27485"/>
        <path id="Path_27486" d="M638.314 194.2a.5.5 0 0 0 .5-.866 8.5 8.5 0 1 1 11.612-3.107 8.548 8.548 0 0 1-4.056 3.579.5.5 0 0 0 .194.961.509.509 0 0 0 .194-.039 9.5 9.5 0 0 0 1.061-16.979 9.5 9.5 0 0 0-9.5 16.451z" class="bordband-1" data-name="Path 27486"/>
    </g>
</svg>
