<svg xmlns="http://www.w3.org/2000/svg" width="29.026" height="36.048" viewBox="0 0 29.026 36.048">
    <defs>
        <style>
            .c{fill:none;stroke:#57606f;stroke-linejoin:round}
        </style>
    </defs>
    <g transform="translate(-3860.374 -752.078)">
        <path d="M3888.9,764.1v19.832a3.7,3.7,0,0,1-3.7,3.694h-20.637a3.694,3.694,0,0,1-3.694-3.694V756.272a3.7,3.7,0,0,1,3.694-3.7h12.811a3.7,3.7,0,0,1,2.613,1.083l7.827,7.825A3.7,3.7,0,0,1,3888.9,764.1Z" transform="translate(0 0.001)" style="stroke-miterlimit:10;fill:none;stroke:#57606f"/>
        <g transform="translate(0.235)" style="stroke-linejoin:round;fill:#cecece">
            <path d="M 3887.4580078125 762.0686645507813 L 3879.1337890625 762.0686645507813 L 3879.1337890625 753.7445068359375 L 3887.4580078125 762.0686645507813 Z" style="stroke:none"/>
            <path d="M 3886.250732421875 761.5686645507813 L 3879.6337890625 754.95166015625 L 3879.6337890625 761.5686645507813 L 3886.250732421875 761.5686645507813 M 3888.6650390625 762.5686645507813 L 3878.6337890625 762.5686645507813 L 3878.6337890625 752.5374145507813 L 3888.6650390625 762.5686645507813 Z" style="fill:#57606f;stroke:none"/>
        </g>
        <line class="c" x2="7.05" transform="translate(3866.585 761.242)"/>
        <line class="c" x2="16.169" transform="translate(3866.585 766.06)"/>
        <line class="c" x2="16.169" transform="translate(3866.585 770.878)"/>
        <line class="c" x2="16.169" transform="translate(3866.585 775.697)"/>
        <line class="c" x2="0.679" transform="translate(3882.075 780.515)"/>
        <line class="c" x2="1.002" transform="translate(3879.423 780.515)"/>
        <line class="c" x2="1.229" transform="translate(3876.481 780.515)"/>
        <line class="c" x2="8.084" transform="translate(3866.585 780.515)"/>
    </g>
</svg>
