
<svg xmlns="http://www.w3.org/2000/svg" width="22.681" height="17.011" viewBox="0 0 22.681 17.011"><defs><style>.a,.b{fill:#999;}.b{font-size:11px;font-family:SegoeUI-Semibold, Segoe UI;font-weight:600;}</style></defs><g transform="translate(9784 -592)"><path class="a" d="M3,8.05H6.24V4.81H3ZM3,12.1H6.24V8.86H3Zm4.05,0h3.24V8.86H7.05Zm4.05,0h3.24V8.86H11.1ZM7.05,8.05h3.24V4.81H7.05ZM11.1,4V8.05h3.24V4Zm4.05,8.1h3.24V8.86h-3.24ZM3,16.151H6.24V12.91H3Zm4.05,0h3.24V12.91H7.05Zm4.05.81h3.24V12.91H11.1Zm4.05,0h3.24V12.91h-3.24ZM15.151,4V8.05h3.24V4Z" transform="translate(-9779.71 589.62)"/><path class="a" d="M17.2,2,2.62,2.81A1.742,1.742,0,0,0,1,4.43v11.34a1.625,1.625,0,0,0,1.62,1.62L17.2,19.011a1.742,1.742,0,0,0,1.62-1.62V3.62A1.742,1.742,0,0,0,17.2,2Z" transform="translate(-9785 590)"/><text class="b" transform="translate(-9779.667 605)"><tspan x="0" y="0">X</tspan></text></g></svg>