<svg xmlns="http://www.w3.org/2000/svg" width="15.2" height="23.987" viewBox="0 0 15.2 23.987">
    <g id="GSM_SIM">
        <g id="Group_15839" data-name="Group 15839">
            <path id="Path_9219" d="M-220.708 373.487h-13.584a.814.814 0 0 1-.808-.808v-19.19l3.989-3.989h10.4a.814.814 0 0 1 .808.808v22.4a.792.792 0 0 1-.805.779zm-6.392-1.587h2.4v-3.989h-2.4zm-3.207 0h2.4v-3.989h-2.4zm-3.207-.606a.614.614 0 0 0 .606.606h1.793v-3.989h-2.4zm.606-11.791a.614.614 0 0 0-.606.606v3.409h2.4v-3.989h-1.786zm5 0h-2.4v3.989h2.4zm3.207 0h-2.4v3.989h2.4zm3.207.606a.614.614 0 0 0-.606-.606h-1.793v4.8h-9.595v2.8h11.993zm0 7.777h-2.4v3.989h1.793a.614.614 0 0 0 .606-.606z"  data-name="Path 9219" transform="translate(235.1 -349.5)"/>
        </g>
    </g>
</svg>
