<svg xmlns="http://www.w3.org/2000/svg" width="66.035" height="115.89" viewBox="0 0 66.035 130.89">
    <defs>
        <style>
            .cls-1{fill:#8e8e93}
        </style>
    </defs>
    <g id="mobile-allow" transform="translate(-918.728 -520.513)">
        <path id="Path_27469" d="M892.466 591.026H853.4a7.318 7.318 0 0 1-7.31-7.309v-8.029h1v8.029a6.316 6.316 0 0 0 6.31 6.309h39.07a6.316 6.316 0 0 0 6.308-6.309v-34.7h1v34.7a7.317 7.317 0 0 1-7.312 7.309z" class="cls-1" data-name="Path 27469" transform="translate(79.724 56.377)"/>
        <path id="Rectangle_8273" d="M0 0h1v2.18H0z" class="cls-1" data-name="Rectangle 8273" transform="translate(978.498 599.064)"/>
        <path id="Rectangle_8274" d="M0 0h1v3.632H0z" class="cls-1" data-name="Rectangle 8274" transform="translate(978.498 590.659)"/>
        <path id="Path_27470" d="M847.086 539.081h-1v-44.636a7.318 7.318 0 0 1 7.31-7.309h39.07a7.317 7.317 0 0 1 7.308 7.309v10.469h-1v-10.469a6.316 6.316 0 0 0-6.308-6.309H853.4a6.316 6.316 0 0 0-6.31 6.309z" class="cls-1" data-name="Path 27470" transform="translate(79.724 56.377)"/>
        <path id="Rectangle_8275" d="M0 0h1v3.528H0z" class="cls-1" data-name="Rectangle 8275" transform="translate(925.81 601.762)"/>
        <path id="Path_27471" d="M877.4 492.418h-9.843a3.126 3.126 0 0 1-3.087-2.67h-1.732v-2.611h19.486v2.611h-1.739a3.127 3.127 0 0 1-3.085 2.67zm-13.662-3.67h1.7v.5a2.139 2.139 0 0 0 .621 1.548 2.107 2.107 0 0 0 1.5.622h9.841a2.125 2.125 0 0 0 2.123-2.123v-.5l.5-.047h1.2v-.611h-17.484z" class="cls-1" data-name="Path 27471" transform="translate(79.724 56.377)"/>
        <path id="Path_27472" d="M898.07 529.857h-38.948a6.976 6.976 0 0 1-6.969-6.967v-4.97a6.976 6.976 0 0 1 6.969-6.968h38.948a6.976 6.976 0 0 1 6.969 6.968v4.97a6.976 6.976 0 0 1-6.969 6.967zm-38.948-17.9a5.975 5.975 0 0 0-5.969 5.968v4.97a5.974 5.974 0 0 0 5.969 5.967h38.948a5.974 5.974 0 0 0 5.969-5.967v-4.97a5.975 5.975 0 0 0-5.969-5.968z" class="cls-1" data-name="Path 27472" transform="translate(79.724 56.377)"/>
        <path id="Path_27473" d="M884.921 571.8h-38.949a6.976 6.976 0 0 1-6.972-6.966v-4.97a6.975 6.975 0 0 1 6.968-6.968h38.949a6.975 6.975 0 0 1 6.968 6.968v4.97a6.976 6.976 0 0 1-6.964 6.966zm-38.949-17.9a5.974 5.974 0 0 0-5.972 5.964v4.97a5.974 5.974 0 0 0 5.968 5.968h38.949a5.974 5.974 0 0 0 5.968-5.968v-4.97a5.974 5.974 0 0 0-5.968-5.968z" class="cls-1" data-name="Path 27473" transform="translate(79.724 56.377)"/>
        <path id="Path_27474" d="M885.814 550.83H858.5a6.647 6.647 0 0 1-6.639-6.639v-5.629a6.646 6.646 0 0 1 6.639-6.638h27.317a6.645 6.645 0 0 1 6.639 6.638v5.629a6.646 6.646 0 0 1-6.642 6.639zM858.5 532.924a5.645 5.645 0 0 0-5.639 5.638v5.629a5.645 5.645 0 0 0 5.639 5.639h27.317a5.645 5.645 0 0 0 5.639-5.639v-5.629a5.644 5.644 0 0 0-5.639-5.638z" class="cls-1" data-name="Path 27474" transform="translate(79.724 56.377)"/>
        <circle id="Ellipse_30" cx="2.024" cy="2.024" r="2.024" data-name="Ellipse 30" transform="translate(950.631 639.43)"/>
        <path id="Path_27475" d="M872.931 587.6a2.524 2.524 0 1 1 2.524-2.524 2.527 2.527 0 0 1-2.524 2.524zm0-4.048a1.524 1.524 0 1 0 1.524 1.524 1.526 1.526 0 0 0-1.524-1.523z" class="cls-1" data-name="Path 27475" transform="translate(79.724 56.377)"/>
    </g>
</svg>
