
<svg xmlns="http://www.w3.org/2000/svg" width="20" height="20" viewBox="0 0 20 20"><defs><style>.a{fill:#999;}</style></defs><path class="a" d="M20,2H8A2.006,2.006,0,0,0,6,4V16a2.006,2.006,0,0,0,2,2H20a2.006,2.006,0,0,0,2-2V4A2.006,2.006,0,0,0,20,2ZM11.5,9.5A1.5,1.5,0,0,1,10,11H9v2H7.5V7H10a1.5,1.5,0,0,1,1.5,1.5Zm5,2A1.5,1.5,0,0,1,15,13H12.5V7H15a1.5,1.5,0,0,1,1.5,1.5Zm4-3H19v1h1.5V11H19v2H17.5V7h3ZM9,9.5h1v-1H9ZM4,6H2V20a2.006,2.006,0,0,0,2,2H18V20H4Zm10,5.5h1v-3H14Z" transform="translate(-2 -2)"/></svg>