<svg xmlns="http://www.w3.org/2000/svg" width="30" height="31.81" viewBox="0 0 30 31.81">
    <defs>
        <style>
            .cls-1{fill:#999}
        </style>
    </defs>
    <g id="User-Account" transform="translate(-627.638 -70.35)">
        <path id="Path_27479" d="M655.388 78.6h-25.5a2.171 2.171 0 0 0-2.25 2.079v19.4a2.17 2.17 0 0 0 2.25 2.075h25.5a2.17 2.17 0 0 0 2.25-2.079v-19.4a2.17 2.17 0 0 0-2.25-2.075zm-12.75 5.377a2.665 2.665 0 1 1-2.665 2.665 2.665 2.665 0 0 1 2.665-2.665zm6.27 14.085a.5.5 0 0 1-.5-.5c0-2.822-2.588-5.117-5.77-5.117s-5.77 2.295-5.77 5.117a.5.5 0 0 1-1 0c0-3.373 3.037-6.117 6.77-6.117s6.77 2.744 6.77 6.117a.5.5 0 0 1-.5.5z" class="cls-1" data-name="Path 27479"/>
        <path id="Path_27480" d="M633.638 71.35h18a.5.5 0 0 0 0-1h-18a.5.5 0 0 0 0 1z" class="cls-1" data-name="Path 27480"/>
        <path id="Path_27481" d="M630.638 75.35h24a.5.5 0 0 0 0-1h-24a.5.5 0 0 0 0 1z" class="cls-1" data-name="Path 27481"/>
    </g>
</svg>
